<?xml version="1.0" encoding="UTF-8" standalone="no"?>
<!-- Created with Inkscape (http://www.inkscape.org/) -->

<svg
   xmlns:dc="http://purl.org/dc/elements/1.1/"
   xmlns:cc="http://creativecommons.org/ns#"
   xmlns:rdf="http://www.w3.org/1999/02/22-rdf-syntax-ns#"
   xmlns:svg="http://www.w3.org/2000/svg"
   xmlns="http://www.w3.org/2000/svg"
   xmlns:sodipodi="http://sodipodi.sourceforge.net/DTD/sodipodi-0.dtd"
   xmlns:inkscape="http://www.inkscape.org/namespaces/inkscape"
   width="48pt"
   height="48pt"
   viewBox="0 0 16.933334 16.933333"
   version="1.1"
   id="svg979"
   inkscape:version="0.92.4 (5da689c313, 2019-01-14)"
   sodipodi:docname="8 - Calculator.svg"
   inkscape:export-filename="E:\TR Design Studio Creative\Project Design\TR Creative Design\Icon Design\Project Hiring\Icon Icons\003 - Business And Finance\Send\2 - Solid\7 - Insurance.png"
   inkscape:export-xdpi="768"
   inkscape:export-ydpi="768">
  <defs
     id="defs973" />
  <sodipodi:namedview
     id="base"
     pagecolor="#ffffff"
     bordercolor="#666666"
     borderopacity="1.0"
     inkscape:pageopacity="0.0"
     inkscape:pageshadow="2"
     inkscape:zoom="8.546875"
     inkscape:cx="32"
     inkscape:cy="32"
     inkscape:document-units="pt"
     inkscape:current-layer="layer1"
     showgrid="false"
     units="pt"
     inkscape:window-width="1366"
     inkscape:window-height="716"
     inkscape:window-x="-8"
     inkscape:window-y="-8"
     inkscape:window-maximized="1"
     inkscape:snap-bbox="true"
     inkscape:bbox-nodes="true"
     inkscape:snap-nodes="false"
     showguides="false">
    <inkscape:grid
       type="xygrid"
       id="grid1526" />
    <sodipodi:guide
       position="0.97013909,15.963209"
       orientation="56.666615,0"
       id="guide1528"
       inkscape:locked="false" />
    <sodipodi:guide
       position="0.97013909,0.97016731"
       orientation="0,56.666667"
       id="guide1530"
       inkscape:locked="false" />
    <sodipodi:guide
       position="15.963195,0.97016731"
       orientation="-56.666615,0"
       id="guide1532"
       inkscape:locked="false" />
    <sodipodi:guide
       position="15.963195,15.963209"
       orientation="0,-56.666667"
       id="guide1534"
       inkscape:locked="false" />
  </sodipodi:namedview>
  <metadata
     id="metadata976">
    <rdf:RDF>
      <cc:Work
         rdf:about="">
        <dc:format>image/svg+xml</dc:format>
        <dc:type
           rdf:resource="http://purl.org/dc/dcmitype/StillImage" />
        <dc:title></dc:title>
      </cc:Work>
    </rdf:RDF>
  </metadata>
  <g
     inkscape:label="Layer 1"
     inkscape:groupmode="layer"
     id="layer1"
     transform="translate(0,-280.06668)">
    <path
       id="path1092"
       style="color:#000000;font-style:normal;font-variant:normal;font-weight:normal;font-stretch:normal;font-size:medium;line-height:normal;font-family:sans-serif;font-variant-ligatures:normal;font-variant-position:normal;font-variant-caps:normal;font-variant-numeric:normal;font-variant-alternates:normal;font-feature-settings:normal;text-indent:0;text-align:start;text-decoration:none;text-decoration-line:none;text-decoration-style:solid;text-decoration-color:#000000;letter-spacing:normal;word-spacing:normal;text-transform:none;writing-mode:lr-tb;direction:ltr;text-orientation:mixed;dominant-baseline:auto;baseline-shift:baseline;text-anchor:start;white-space:normal;shape-padding:0;clip-rule:nonzero;display:inline;overflow:visible;visibility:visible;isolation:auto;mix-blend-mode:normal;color-interpolation:sRGB;color-interpolation-filters:linearRGB;solid-color:#000000;solid-opacity:1;vector-effect:none;fill:#000000;fill-opacity:1;fill-rule:nonzero;stroke:none;stroke-width:0.52916902;stroke-linecap:round;stroke-linejoin:round;stroke-miterlimit:4;stroke-dasharray:none;stroke-dashoffset:0;stroke-opacity:1;color-rendering:auto;image-rendering:auto;shape-rendering:auto;text-rendering:auto;enable-background:accumulate"
       d="m 4.5596026,281.03683 c -0.9476783,0 -1.7197829,0.77465 -1.7197829,1.72232 v 11.54903 c 0,0.94766 0.7721008,1.72169 1.7197829,1.72169 h 7.8141284 c 0.947682,0 1.719783,-0.77403 1.719783,-1.72169 v -11.54903 c 0,-0.94767 -0.772104,-1.72232 -1.719783,-1.72232 z m 0.2800531,1.34107 h 7.3043053 c 0.180722,10e-6 0.326925,0.14707 0.32588,0.3278 v 2.5453 c -2.1e-5,0.17997 -0.145911,0.32586 -0.32588,0.32588 H 4.8396557 c -0.1799698,-2e-5 -0.3258591,-0.14591 -0.32588,-0.32588 v -2.5453 c 0,-0.17771 0.12912,-0.3278 0.32588,-0.3278 z m 0.32588,0.65367 v 1.89354 h 6.6506353 v -1.89354 z m 3.3854658,0.8007 h 2.5860395 c 0.179483,3.5e-4 0.324896,0.14577 0.325245,0.32525 -3e-6,0.17973 -0.145517,0.32553 -0.325245,0.32588 H 8.5510015 c -0.1797282,-3.6e-4 -0.325242,-0.14615 -0.3252446,-0.32588 3.585e-4,-0.17948 0.1457615,-0.3249 0.3252446,-0.32525 z m -3.4083786,2.5523 H 9.056371 c 0.1797258,3.6e-4 0.3252297,0.14616 0.325243,0.32589 v 1.30543 c -1.94e-5,0.17972 -0.1455221,0.3255 -0.325243,0.32587 H 5.1426229 c -0.1799698,-1e-5 -0.3258603,-0.1459 -0.3258813,-0.32587 v -1.30543 c 0,-0.17188 0.1758006,-0.32589 0.3258813,-0.32589 z m 0.3258801,0.65432 v 0.65112 h 3.2619867 v -0.65112 z m -0.3182376,2.33526 h 1.2195053 c 0.1799698,2e-5 0.3258602,0.14591 0.325881,0.32588 v 1.24241 c -3.584e-4,0.17973 -0.1461563,0.32524 -0.325881,0.32525 H 5.1298985 c -0.1797247,-1e-5 -0.3255143,-0.14552 -0.3258813,-0.32525 v -1.24241 c 0,-0.17967 0.153793,-0.32588 0.3462482,-0.32588 z m 2.7317942,0.0331 H 9.104112 c 0.1797197,2e-5 0.3255065,0.14553 0.32588,0.32524 v 1.23988 c -2.12e-5,0.17997 -0.1459103,0.32586 -0.32588,0.32587 H 7.8616927 c -0.179721,-3.5e-4 -0.3252247,-0.14615 -0.3252446,-0.32587 v -1.23988 c 0,-0.18974 0.1722903,-0.32524 0.3456115,-0.32524 z m 2.5955874,0.0299 h 1.219507 c 0.180962,-10e-4 0.328411,0.14491 0.328425,0.32588 v 1.24179 c -1.4e-5,0.18097 -0.147463,0.32727 -0.328425,0.32587 H 10.45728 c -0.179721,-3.5e-4 -0.325225,-0.14615 -0.325245,-0.32587 v -1.24179 c 0,-0.1832 0.159032,-0.32588 0.345612,-0.32588 z m -5.0218734,0.58874 v 0.58812 h 0.5881121 v -0.58812 z m 2.731794,0.0325 v 0.58811 h 0.5906593 v -0.58811 z m 2.5955874,0.0306 v 0.59066 h 0.588112 v -0.59066 z m -5.6099817,2.37091 h 1.2417836 c 0.1797248,10e-6 0.3255132,0.14552 0.3258801,0.32525 v 1.24241 c -2.08e-5,0.17997 -0.1459104,0.32586 -0.3258801,0.32588 H 5.1725378 c -0.179721,-3.7e-4 -0.3252248,-0.14615 -0.3252445,-0.32588 v -1.24241 c 0,-0.17361 0.1482369,-0.32525 0.32588,-0.32525 z m 5.2389117,0 h 1.242419 c 0.179725,10e-6 0.325513,0.14552 0.32588,0.32525 v 1.24241 c -2.1e-5,0.17997 -0.14591,0.32586 -0.32588,0.32588 h -1.242419 c -0.17997,-2e-5 -0.32586,-0.14591 -0.325881,-0.32588 v -1.24241 c 0,-0.18551 0.143862,-0.32525 0.325881,-0.32525 z m -2.496928,0.0324 h 1.2195065 c 0.179726,3.6e-4 0.3252297,0.14616 0.3252434,0.32589 v 1.24179 c -2e-5,0.17972 -0.1455223,0.3255 -0.3252434,0.32587 H 7.8947902 c -0.1799698,-1e-5 -0.325859,-0.1459 -0.3258802,-0.32587 v -1.24179 c 0,-0.19134 0.1797025,-0.32589 0.346247,-0.32589 z m -2.4141933,0.62122 v 0.58811 h 0.5887489 v -0.58811 z m 5.2370013,0 v 0.58811 h 0.590658 v -0.58811 z m -2.5172996,0.0306 v 0.58811 h 0.5881118 v -0.58811 z"
       inkscape:connector-curvature="0"
       sodipodi:nodetypes="sssssssssccccccccccccccccccccccccccccccccccccccccccccccccccccccccccccccccccccccccccccccccccccccccccccccccccccccccccccccccccccccc" />
  </g>
</svg>
