<?xml version="1.0" encoding="UTF-8" standalone="no"?>
<!-- Created with Inkscape (http://www.inkscape.org/) -->

<svg
   xmlns:dc="http://purl.org/dc/elements/1.1/"
   xmlns:cc="http://creativecommons.org/ns#"
   xmlns:rdf="http://www.w3.org/1999/02/22-rdf-syntax-ns#"
   xmlns:svg="http://www.w3.org/2000/svg"
   xmlns="http://www.w3.org/2000/svg"
   xmlns:sodipodi="http://sodipodi.sourceforge.net/DTD/sodipodi-0.dtd"
   xmlns:inkscape="http://www.inkscape.org/namespaces/inkscape"
   width="48pt"
   height="48pt"
   viewBox="0 0 16.933334 16.933333"
   version="1.1"
   id="svg979"
   inkscape:version="0.92.4 (5da689c313, 2019-01-14)"
   sodipodi:docname="8 - Calculator.svg"
   inkscape:export-filename="E:\TR Design Studio Creative\Project Design\TR Creative Design\Icon Design\Project Hiring\Icon Icons\003 - Business And Finance\Send\3 - Flat\8 - Calculator.png"
   inkscape:export-xdpi="768"
   inkscape:export-ydpi="768">
  <defs
     id="defs973" />
  <sodipodi:namedview
     id="base"
     pagecolor="#ffffff"
     bordercolor="#666666"
     borderopacity="1.0"
     inkscape:pageopacity="0.0"
     inkscape:pageshadow="2"
     inkscape:zoom="8.546875"
     inkscape:cx="12.987203"
     inkscape:cy="32"
     inkscape:document-units="pt"
     inkscape:current-layer="layer1"
     showgrid="false"
     units="pt"
     inkscape:window-width="1366"
     inkscape:window-height="716"
     inkscape:window-x="-8"
     inkscape:window-y="-8"
     inkscape:window-maximized="1"
     inkscape:snap-bbox="true"
     inkscape:bbox-nodes="true"
     inkscape:snap-nodes="false"
     showguides="false">
    <inkscape:grid
       type="xygrid"
       id="grid1526" />
    <sodipodi:guide
       position="0.97013909,15.963209"
       orientation="56.666615,0"
       id="guide1528"
       inkscape:locked="false" />
    <sodipodi:guide
       position="0.97013909,0.97016731"
       orientation="0,56.666667"
       id="guide1530"
       inkscape:locked="false" />
    <sodipodi:guide
       position="15.963195,0.97016731"
       orientation="-56.666615,0"
       id="guide1532"
       inkscape:locked="false" />
    <sodipodi:guide
       position="15.963195,15.963209"
       orientation="0,-56.666667"
       id="guide1534"
       inkscape:locked="false" />
  </sodipodi:namedview>
  <metadata
     id="metadata976">
    <rdf:RDF>
      <cc:Work
         rdf:about="">
        <dc:format>image/svg+xml</dc:format>
        <dc:type
           rdf:resource="http://purl.org/dc/dcmitype/StillImage" />
        <dc:title />
      </cc:Work>
    </rdf:RDF>
  </metadata>
  <g
     inkscape:label="Layer 1"
     inkscape:groupmode="layer"
     id="layer1"
     transform="translate(0,-280.06668)">
    <g
       id="g2509"
       transform="matrix(1.231777,0,0,1.231777,0.64416098,-69.483119)"
       style="stroke-width:0.81183529">
      <path
         id="path2454"
         d="m 3.1777344,284.56445 c -0.7694242,0 -1.3964844,0.62706 -1.3964844,1.39649 v 9.37695 c 0,0.76942 0.6270602,1.39844 1.3964844,1.39844 h 6.34375 c 0.7694236,0 1.3984376,-0.62902 1.3984376,-1.39844 v -9.37695 c 0,-0.76943 -0.629014,-1.39649 -1.3984376,-1.39649 z"
         style="color:#000000;font-style:normal;font-variant:normal;font-weight:normal;font-stretch:normal;font-size:medium;line-height:normal;font-family:sans-serif;font-variant-ligatures:normal;font-variant-position:normal;font-variant-caps:normal;font-variant-numeric:normal;font-variant-alternates:normal;font-feature-settings:normal;text-indent:0;text-align:start;text-decoration:none;text-decoration-line:none;text-decoration-style:solid;text-decoration-color:#000000;letter-spacing:normal;word-spacing:normal;text-transform:none;writing-mode:lr-tb;direction:ltr;text-orientation:mixed;dominant-baseline:auto;baseline-shift:baseline;text-anchor:start;white-space:normal;shape-padding:0;clip-rule:nonzero;display:inline;overflow:visible;visibility:visible;isolation:auto;mix-blend-mode:normal;color-interpolation:sRGB;color-interpolation-filters:linearRGB;solid-color:#000000;solid-opacity:1;vector-effect:none;fill:#333333;fill-opacity:1;fill-rule:nonzero;stroke:none;stroke-width:0.42959726;stroke-linecap:round;stroke-linejoin:round;stroke-miterlimit:4;stroke-dasharray:none;stroke-dashoffset:0;stroke-opacity:1;color-rendering:auto;image-rendering:auto;shape-rendering:auto;text-rendering:auto;enable-background:accumulate"
         inkscape:connector-curvature="0" />
      <path
         id="path2383"
         d="m 3.40625,285.65234 a 0.2645835,0.2645835 0 0 0 -0.125,0.0312 0.2645835,0.2645835 0 0 0 -0.1308594,0.16602 0.2645835,0.2645835 0 0 0 -0.00781,0.041 0.2645835,0.2645835 0 0 0 -0.00195,0.0274 v 2.06641 a 0.26460996,0.26460996 0 0 0 0.265625,0.26367 h 5.9296875 a 0.26460996,0.26460996 0 0 0 0.2636719,-0.26367 v -2.06641 a 0.26460996,0.26460996 0 0 0 -0.2636719,-0.26563 z"
         style="color:#000000;font-style:normal;font-variant:normal;font-weight:normal;font-stretch:normal;font-size:medium;line-height:normal;font-family:sans-serif;font-variant-ligatures:normal;font-variant-position:normal;font-variant-caps:normal;font-variant-numeric:normal;font-variant-alternates:normal;font-feature-settings:normal;text-indent:0;text-align:start;text-decoration:none;text-decoration-line:none;text-decoration-style:solid;text-decoration-color:#000000;letter-spacing:normal;word-spacing:normal;text-transform:none;writing-mode:lr-tb;direction:ltr;text-orientation:mixed;dominant-baseline:auto;baseline-shift:baseline;text-anchor:start;white-space:normal;shape-padding:0;clip-rule:nonzero;display:inline;overflow:visible;visibility:visible;opacity:1;isolation:auto;mix-blend-mode:normal;color-interpolation:sRGB;color-interpolation-filters:linearRGB;solid-color:#000000;solid-opacity:1;vector-effect:none;fill:#ffcd40;fill-opacity:1;fill-rule:nonzero;stroke:none;stroke-width:0.42959642;stroke-linecap:round;stroke-linejoin:round;stroke-miterlimit:4;stroke-dasharray:none;stroke-dashoffset:0;stroke-opacity:1;color-rendering:auto;image-rendering:auto;shape-rendering:auto;text-rendering:auto;enable-background:accumulate"
         inkscape:connector-curvature="0" />
      <path
         id="path2391"
         d="m 6.4179688,286.83203 a 0.2645835,0.2645835 0 0 0 -0.2636719,0.26563 0.2645835,0.2645835 0 0 0 0.2636719,0.26367 h 2.0996093 a 0.2645835,0.2645835 0 0 0 0.265625,-0.26367 0.2645835,0.2645835 0 0 0 -0.265625,-0.26563 z"
         style="color:#000000;font-style:normal;font-variant:normal;font-weight:normal;font-stretch:normal;font-size:medium;line-height:normal;font-family:sans-serif;font-variant-ligatures:normal;font-variant-position:normal;font-variant-caps:normal;font-variant-numeric:normal;font-variant-alternates:normal;font-feature-settings:normal;text-indent:0;text-align:start;text-decoration:none;text-decoration-line:none;text-decoration-style:solid;text-decoration-color:#000000;letter-spacing:normal;word-spacing:normal;text-transform:none;writing-mode:lr-tb;direction:ltr;text-orientation:mixed;dominant-baseline:auto;baseline-shift:baseline;text-anchor:start;white-space:normal;shape-padding:0;clip-rule:nonzero;display:inline;overflow:visible;visibility:visible;opacity:1;isolation:auto;mix-blend-mode:normal;color-interpolation:sRGB;color-interpolation-filters:linearRGB;solid-color:#000000;solid-opacity:1;vector-effect:none;fill:#333333;fill-opacity:1;fill-rule:nonzero;stroke:none;stroke-width:0.42959642;stroke-linecap:round;stroke-linejoin:round;stroke-miterlimit:4;stroke-dasharray:none;stroke-dashoffset:0;stroke-opacity:1;color-rendering:auto;image-rendering:auto;shape-rendering:auto;text-rendering:auto;enable-background:accumulate"
         inkscape:connector-curvature="0" />
      <path
         id="path2395"
         d="m 3.6503906,288.90625 a 0.2645835,0.2645835 0 0 0 -0.1230468,0.0312 0.2645835,0.2645835 0 0 0 -0.1308594,0.16406 0.2645835,0.2645835 0 0 0 -0.00781,0.043 0.2645835,0.2645835 0 0 0 -0.00195,0.0274 v 1.05859 a 0.26460996,0.26460996 0 0 0 0.2636718,0.26367 H 6.828125 A 0.26460996,0.26460996 0 0 0 7.09375,290.2305 v -1.05859 a 0.26460996,0.26460996 0 0 0 -0.265625,-0.26563 z"
         style="color:#000000;font-style:normal;font-variant:normal;font-weight:normal;font-stretch:normal;font-size:medium;line-height:normal;font-family:sans-serif;font-variant-ligatures:normal;font-variant-position:normal;font-variant-caps:normal;font-variant-numeric:normal;font-variant-alternates:normal;font-feature-settings:normal;text-indent:0;text-align:start;text-decoration:none;text-decoration-line:none;text-decoration-style:solid;text-decoration-color:#000000;letter-spacing:normal;word-spacing:normal;text-transform:none;writing-mode:lr-tb;direction:ltr;text-orientation:mixed;dominant-baseline:auto;baseline-shift:baseline;text-anchor:start;white-space:normal;shape-padding:0;clip-rule:nonzero;display:inline;overflow:visible;visibility:visible;opacity:1;isolation:auto;mix-blend-mode:normal;color-interpolation:sRGB;color-interpolation-filters:linearRGB;solid-color:#000000;solid-opacity:1;vector-effect:none;fill:#ff1744;fill-opacity:1;fill-rule:nonzero;stroke:none;stroke-width:0.42959642;stroke-linecap:round;stroke-linejoin:round;stroke-miterlimit:4;stroke-dasharray:none;stroke-dashoffset:0;stroke-opacity:1;color-rendering:auto;image-rendering:auto;shape-rendering:auto;text-rendering:auto;enable-background:accumulate"
         inkscape:connector-curvature="0" />
      <path
         id="path2403"
         d="m 3.640625,291.33203 a 0.2645835,0.2645835 0 0 0 -0.125,0.0312 0.2645835,0.2645835 0 0 0 -0.1308594,0.16602 0.2645835,0.2645835 0 0 0 -0.00781,0.041 0.2645835,0.2645835 0 0 0 -0.00195,0.0274 v 1.00781 a 0.26460996,0.26460996 0 0 0 0.265625,0.26367 h 1.0078125 a 0.26460996,0.26460996 0 0 0 0.2636719,-0.26367 v -1.00781 a 0.26460996,0.26460996 0 0 0 -0.2636719,-0.26563 z"
         style="color:#000000;font-style:normal;font-variant:normal;font-weight:normal;font-stretch:normal;font-size:medium;line-height:normal;font-family:sans-serif;font-variant-ligatures:normal;font-variant-position:normal;font-variant-caps:normal;font-variant-numeric:normal;font-variant-alternates:normal;font-feature-settings:normal;text-indent:0;text-align:start;text-decoration:none;text-decoration-line:none;text-decoration-style:solid;text-decoration-color:#000000;letter-spacing:normal;word-spacing:normal;text-transform:none;writing-mode:lr-tb;direction:ltr;text-orientation:mixed;dominant-baseline:auto;baseline-shift:baseline;text-anchor:start;white-space:normal;shape-padding:0;clip-rule:nonzero;display:inline;overflow:visible;visibility:visible;opacity:1;isolation:auto;mix-blend-mode:normal;color-interpolation:sRGB;color-interpolation-filters:linearRGB;solid-color:#000000;solid-opacity:1;vector-effect:none;fill:#b3b3b3;fill-opacity:1;fill-rule:nonzero;stroke:none;stroke-width:0.42959642;stroke-linecap:round;stroke-linejoin:round;stroke-miterlimit:4;stroke-dasharray:none;stroke-dashoffset:0;stroke-opacity:1;color-rendering:auto;image-rendering:auto;shape-rendering:auto;text-rendering:auto;enable-background:accumulate"
         inkscape:connector-curvature="0" />
      <path
         id="path2411"
         d="m 5.859375,291.35938 a 0.2645835,0.2645835 0 0 0 -0.125,0.0312 0.2645835,0.2645835 0 0 0 -0.1308594,0.16407 0.2645835,0.2645835 0 0 0 -0.00781,0.043 0.2645835,0.2645835 0 0 0 0,0.0254 v 1.00781 a 0.26460996,0.26460996 0 0 0 0.2636719,0.26367 H 6.86719 a 0.26460996,0.26460996 0 0 0 0.2636719,-0.26367 v -1.00781 A 0.26460996,0.26460996 0 0 0 6.8671875,291.35938 H 5.8867188 Z"
         style="color:#000000;font-style:normal;font-variant:normal;font-weight:normal;font-stretch:normal;font-size:medium;line-height:normal;font-family:sans-serif;font-variant-ligatures:normal;font-variant-position:normal;font-variant-caps:normal;font-variant-numeric:normal;font-variant-alternates:normal;font-feature-settings:normal;text-indent:0;text-align:start;text-decoration:none;text-decoration-line:none;text-decoration-style:solid;text-decoration-color:#000000;letter-spacing:normal;word-spacing:normal;text-transform:none;writing-mode:lr-tb;direction:ltr;text-orientation:mixed;dominant-baseline:auto;baseline-shift:baseline;text-anchor:start;white-space:normal;shape-padding:0;clip-rule:nonzero;display:inline;overflow:visible;visibility:visible;opacity:1;isolation:auto;mix-blend-mode:normal;color-interpolation:sRGB;color-interpolation-filters:linearRGB;solid-color:#000000;solid-opacity:1;vector-effect:none;fill:#b3b3b3;fill-opacity:1;fill-rule:nonzero;stroke:none;stroke-width:0.42959642;stroke-linecap:round;stroke-linejoin:round;stroke-miterlimit:4;stroke-dasharray:none;stroke-dashoffset:0;stroke-opacity:1;color-rendering:auto;image-rendering:auto;shape-rendering:auto;text-rendering:auto;enable-background:accumulate"
         inkscape:connector-curvature="0" />
      <path
         id="path2419"
         d="m 7.9667969,291.38477 a 0.2645835,0.2645835 0 0 0 -0.125,0.0312 0.2645835,0.2645835 0 0 0 -0.1308594,0.16406 0.2645835,0.2645835 0 0 0 -0.00781,0.043 0.2645835,0.2645835 0 0 0 0,0.0254 v 1.00781 a 0.26460996,0.26460996 0 0 0 0.2636719,0.26563 h 1.0078125 a 0.26460996,0.26460996 0 0 0 0.2636718,-0.26563 v -1.00781 A 0.26460996,0.26460996 0 0 0 8.9746094,291.38477 H 7.9921875 Z"
         style="color:#000000;font-style:normal;font-variant:normal;font-weight:normal;font-stretch:normal;font-size:medium;line-height:normal;font-family:sans-serif;font-variant-ligatures:normal;font-variant-position:normal;font-variant-caps:normal;font-variant-numeric:normal;font-variant-alternates:normal;font-feature-settings:normal;text-indent:0;text-align:start;text-decoration:none;text-decoration-line:none;text-decoration-style:solid;text-decoration-color:#000000;letter-spacing:normal;word-spacing:normal;text-transform:none;writing-mode:lr-tb;direction:ltr;text-orientation:mixed;dominant-baseline:auto;baseline-shift:baseline;text-anchor:start;white-space:normal;shape-padding:0;clip-rule:nonzero;display:inline;overflow:visible;visibility:visible;opacity:1;isolation:auto;mix-blend-mode:normal;color-interpolation:sRGB;color-interpolation-filters:linearRGB;solid-color:#000000;solid-opacity:1;vector-effect:none;fill:#b3b3b3;fill-opacity:1;fill-rule:nonzero;stroke:none;stroke-width:0.42959642;stroke-linecap:round;stroke-linejoin:round;stroke-miterlimit:4;stroke-dasharray:none;stroke-dashoffset:0;stroke-opacity:1;color-rendering:auto;image-rendering:auto;shape-rendering:auto;text-rendering:auto;enable-background:accumulate"
         inkscape:connector-curvature="0" />
      <path
         id="path2427"
         d="m 3.6777344,293.83789 a 0.2645835,0.2645835 0 0 0 -0.125,0.0312 0.2645835,0.2645835 0 0 0 -0.1308594,0.16602 0.2645835,0.2645835 0 0 0 -0.00781,0.041 0.2645835,0.2645835 0 0 0 -0.00195,0.0274 v 1.00781 a 0.26460996,0.26460996 0 0 0 0.265625,0.26367 h 1.0058594 a 0.26460996,0.26460996 0 0 0 0.265625,-0.26367 v -1.00781 a 0.26460996,0.26460996 0 0 0 -0.265625,-0.26563 z"
         style="color:#000000;font-style:normal;font-variant:normal;font-weight:normal;font-stretch:normal;font-size:medium;line-height:normal;font-family:sans-serif;font-variant-ligatures:normal;font-variant-position:normal;font-variant-caps:normal;font-variant-numeric:normal;font-variant-alternates:normal;font-feature-settings:normal;text-indent:0;text-align:start;text-decoration:none;text-decoration-line:none;text-decoration-style:solid;text-decoration-color:#000000;letter-spacing:normal;word-spacing:normal;text-transform:none;writing-mode:lr-tb;direction:ltr;text-orientation:mixed;dominant-baseline:auto;baseline-shift:baseline;text-anchor:start;white-space:normal;shape-padding:0;clip-rule:nonzero;display:inline;overflow:visible;visibility:visible;opacity:1;isolation:auto;mix-blend-mode:normal;color-interpolation:sRGB;color-interpolation-filters:linearRGB;solid-color:#000000;solid-opacity:1;vector-effect:none;fill:#b3b3b3;fill-opacity:1;fill-rule:nonzero;stroke:none;stroke-width:0.42959642;stroke-linecap:round;stroke-linejoin:round;stroke-miterlimit:4;stroke-dasharray:none;stroke-dashoffset:0;stroke-opacity:1;color-rendering:auto;image-rendering:auto;shape-rendering:auto;text-rendering:auto;enable-background:accumulate"
         inkscape:connector-curvature="0" />
      <path
         id="path2435"
         d="m 5.8847656,293.86523 a 0.2645835,0.2645835 0 0 0 -0.125,0.0312 0.2645835,0.2645835 0 0 0 -0.1308594,0.16407 0.2645835,0.2645835 0 0 0 -0.00586,0.043 0.2645835,0.2645835 0 0 0 -0.00195,0.0254 v 1.00781 a 0.26460996,0.26460996 0 0 0 0.2636718,0.26367 h 1.0078125 a 0.26460996,0.26460996 0 0 0 0.265625,-0.26367 v -1.00781 a 0.26460996,0.26460996 0 0 0 -0.265625,-0.26368 H 5.9121094 Z"
         style="color:#000000;font-style:normal;font-variant:normal;font-weight:normal;font-stretch:normal;font-size:medium;line-height:normal;font-family:sans-serif;font-variant-ligatures:normal;font-variant-position:normal;font-variant-caps:normal;font-variant-numeric:normal;font-variant-alternates:normal;font-feature-settings:normal;text-indent:0;text-align:start;text-decoration:none;text-decoration-line:none;text-decoration-style:solid;text-decoration-color:#000000;letter-spacing:normal;word-spacing:normal;text-transform:none;writing-mode:lr-tb;direction:ltr;text-orientation:mixed;dominant-baseline:auto;baseline-shift:baseline;text-anchor:start;white-space:normal;shape-padding:0;clip-rule:nonzero;display:inline;overflow:visible;visibility:visible;opacity:1;isolation:auto;mix-blend-mode:normal;color-interpolation:sRGB;color-interpolation-filters:linearRGB;solid-color:#000000;solid-opacity:1;vector-effect:none;fill:#b3b3b3;fill-opacity:1;fill-rule:nonzero;stroke:none;stroke-width:0.42959642;stroke-linecap:round;stroke-linejoin:round;stroke-miterlimit:4;stroke-dasharray:none;stroke-dashoffset:0;stroke-opacity:1;color-rendering:auto;image-rendering:auto;shape-rendering:auto;text-rendering:auto;enable-background:accumulate"
         inkscape:connector-curvature="0" />
      <path
         id="path2443"
         d="m 7.9296875,293.83789 a 0.2645835,0.2645835 0 0 0 -0.125,0.0312 0.2645835,0.2645835 0 0 0 -0.1308594,0.16602 0.2645835,0.2645835 0 0 0 -0.00781,0.041 0.2645835,0.2645835 0 0 0 0,0.0274 v 1.00781 A 0.26460996,0.26460996 0 0 0 7.9296875,295.375 H 8.9375 a 0.26460996,0.26460996 0 0 0 0.265625,-0.26367 v -1.00781 A 0.26460996,0.26460996 0 0 0 8.9375,293.83789 Z"
         style="color:#000000;font-style:normal;font-variant:normal;font-weight:normal;font-stretch:normal;font-size:medium;line-height:normal;font-family:sans-serif;font-variant-ligatures:normal;font-variant-position:normal;font-variant-caps:normal;font-variant-numeric:normal;font-variant-alternates:normal;font-feature-settings:normal;text-indent:0;text-align:start;text-decoration:none;text-decoration-line:none;text-decoration-style:solid;text-decoration-color:#000000;letter-spacing:normal;word-spacing:normal;text-transform:none;writing-mode:lr-tb;direction:ltr;text-orientation:mixed;dominant-baseline:auto;baseline-shift:baseline;text-anchor:start;white-space:normal;shape-padding:0;clip-rule:nonzero;display:inline;overflow:visible;visibility:visible;opacity:1;isolation:auto;mix-blend-mode:normal;color-interpolation:sRGB;color-interpolation-filters:linearRGB;solid-color:#000000;solid-opacity:1;vector-effect:none;fill:#b3b3b3;fill-opacity:1;fill-rule:nonzero;stroke:none;stroke-width:0.42959642;stroke-linecap:round;stroke-linejoin:round;stroke-miterlimit:4;stroke-dasharray:none;stroke-dashoffset:0;stroke-opacity:1;color-rendering:auto;image-rendering:auto;shape-rendering:auto;text-rendering:auto;enable-background:accumulate"
         inkscape:connector-curvature="0" />
      <path
         d="m 3.1775836,284.56458 c -0.5206963,0 -0.9706988,0.29056 -1.2107788,0.71469 0.2026002,-0.11468 0.432884,-0.18552 0.6816121,-0.18552 h 6.3437967 c 0.7694237,0 1.3983644,0.62687 1.3983644,1.3963 v 9.3772 c 0,0.24893 -0.07091,0.47966 -0.186036,0.68265 0.424355,-0.24076 0.715202,-0.69139 0.715202,-1.21181 v -9.37721 c 0,-0.76943 -0.62894,-1.3963 -1.3983637,-1.3963 z"
         style="color:#000000;font-style:normal;font-variant:normal;font-weight:normal;font-stretch:normal;font-size:medium;line-height:normal;font-family:sans-serif;font-variant-ligatures:normal;font-variant-position:normal;font-variant-caps:normal;font-variant-numeric:normal;font-variant-alternates:normal;font-feature-settings:normal;text-indent:0;text-align:start;text-decoration:none;text-decoration-line:none;text-decoration-style:solid;text-decoration-color:#000000;letter-spacing:normal;word-spacing:normal;text-transform:none;writing-mode:lr-tb;direction:ltr;text-orientation:mixed;dominant-baseline:auto;baseline-shift:baseline;text-anchor:start;white-space:normal;shape-padding:0;clip-rule:nonzero;display:inline;overflow:visible;visibility:visible;isolation:auto;mix-blend-mode:normal;color-interpolation:sRGB;color-interpolation-filters:linearRGB;solid-color:#000000;solid-opacity:1;vector-effect:none;fill:#1a1a1a;fill-opacity:1;fill-rule:nonzero;stroke:none;stroke-width:0.42959806;stroke-linecap:round;stroke-linejoin:round;stroke-miterlimit:4;stroke-dasharray:none;stroke-dashoffset:0;stroke-opacity:1;color-rendering:auto;image-rendering:auto;shape-rendering:auto;text-rendering:auto;enable-background:accumulate"
         id="path2466"
         inkscape:connector-curvature="0" />
      <path
         d="m 3.6504229,288.90644 a 0.26458349,0.26458349 0 0 0 -0.12299,0.031 0.26458349,0.26458349 0 0 0 -0.1307412,0.16382 0.26458349,0.26458349 0 0 0 -0.00827,0.0434 0.26458349,0.26458349 0 0 0 -0.00156,0.0274 v 0.26355 h 2.9119671 a 0.26460995,0.26460995 0 0 1 0.2656168,0.26562 v 0.79272 h 0.2635492 a 0.26460995,0.26460995 0 0 0 0.265617,-0.26355 v -1.05834 a 0.26460995,0.26460995 0 0 0 -0.265617,-0.26561 z"
         style="color:#000000;font-style:normal;font-variant:normal;font-weight:normal;font-stretch:normal;font-size:medium;line-height:normal;font-family:sans-serif;font-variant-ligatures:normal;font-variant-position:normal;font-variant-caps:normal;font-variant-numeric:normal;font-variant-alternates:normal;font-feature-settings:normal;text-indent:0;text-align:start;text-decoration:none;text-decoration-line:none;text-decoration-style:solid;text-decoration-color:#000000;letter-spacing:normal;word-spacing:normal;text-transform:none;writing-mode:lr-tb;direction:ltr;text-orientation:mixed;dominant-baseline:auto;baseline-shift:baseline;text-anchor:start;white-space:normal;shape-padding:0;clip-rule:nonzero;display:inline;overflow:visible;visibility:visible;opacity:1;isolation:auto;mix-blend-mode:normal;color-interpolation:sRGB;color-interpolation-filters:linearRGB;solid-color:#000000;solid-opacity:1;vector-effect:none;fill:#e5173a;fill-opacity:1;fill-rule:nonzero;stroke:none;stroke-width:0.42959642;stroke-linecap:round;stroke-linejoin:round;stroke-miterlimit:4;stroke-dasharray:none;stroke-dashoffset:0;stroke-opacity:1;color-rendering:auto;image-rendering:auto;shape-rendering:auto;text-rendering:auto;enable-background:accumulate"
         id="path2471"
         inkscape:connector-curvature="0" />
      <path
         d="m 3.6406044,291.33214 a 0.26458349,0.26458349 0 0 0 -0.1250571,0.031 0.26458349,0.26458349 0 0 0 -0.1307412,0.16588 0.26458349,0.26458349 0 0 0 -0.00775,0.0413 0.26458349,0.26458349 0 0 0 -0.00206,0.0274 v 0.26355 h 0.7441406 a 0.26460995,0.26460995 0 0 1 0.2640666,0.26562 v 0.74207 H 4.6483034 A 0.26460995,0.26460995 0 0 0 4.91237,292.60541 v -1.00769 A 0.26460995,0.26460995 0 0 0 4.6483034,291.3321 Z"
         style="color:#000000;font-style:normal;font-variant:normal;font-weight:normal;font-stretch:normal;font-size:medium;line-height:normal;font-family:sans-serif;font-variant-ligatures:normal;font-variant-position:normal;font-variant-caps:normal;font-variant-numeric:normal;font-variant-alternates:normal;font-feature-settings:normal;text-indent:0;text-align:start;text-decoration:none;text-decoration-line:none;text-decoration-style:solid;text-decoration-color:#000000;letter-spacing:normal;word-spacing:normal;text-transform:none;writing-mode:lr-tb;direction:ltr;text-orientation:mixed;dominant-baseline:auto;baseline-shift:baseline;text-anchor:start;white-space:normal;shape-padding:0;clip-rule:nonzero;display:inline;overflow:visible;visibility:visible;opacity:1;isolation:auto;mix-blend-mode:normal;color-interpolation:sRGB;color-interpolation-filters:linearRGB;solid-color:#000000;solid-opacity:1;vector-effect:none;fill:#999999;fill-opacity:1;fill-rule:nonzero;stroke:none;stroke-width:0.42959642;stroke-linecap:round;stroke-linejoin:round;stroke-miterlimit:4;stroke-dasharray:none;stroke-dashoffset:0;stroke-opacity:1;color-rendering:auto;image-rendering:auto;shape-rendering:auto;text-rendering:auto;enable-background:accumulate"
         id="path2476"
         inkscape:connector-curvature="0" />
      <path
         id="path2481"
         style="color:#000000;font-style:normal;font-variant:normal;font-weight:normal;font-stretch:normal;font-size:medium;line-height:normal;font-family:sans-serif;font-variant-ligatures:normal;font-variant-position:normal;font-variant-caps:normal;font-variant-numeric:normal;font-variant-alternates:normal;font-feature-settings:normal;text-indent:0;text-align:start;text-decoration:none;text-decoration-line:none;text-decoration-style:solid;text-decoration-color:#000000;letter-spacing:normal;word-spacing:normal;text-transform:none;writing-mode:lr-tb;direction:ltr;text-orientation:mixed;dominant-baseline:auto;baseline-shift:baseline;text-anchor:start;white-space:normal;shape-padding:0;clip-rule:nonzero;display:inline;overflow:visible;visibility:visible;opacity:1;isolation:auto;mix-blend-mode:normal;color-interpolation:sRGB;color-interpolation-filters:linearRGB;solid-color:#000000;solid-opacity:1;vector-effect:none;fill:#999999;fill-opacity:1;fill-rule:nonzero;stroke:none;stroke-width:0.42959642;stroke-linecap:round;stroke-linejoin:round;stroke-miterlimit:4;stroke-dasharray:none;stroke-dashoffset:0;stroke-opacity:1;color-rendering:auto;image-rendering:auto;shape-rendering:auto;text-rendering:auto;enable-background:accumulate"
         d="m 5.8590963,291.35747 a 0.26458349,0.26458349 0 0 0 -0.1250571,0.031 0.26458349,0.26458349 0 0 0 -0.1307412,0.16588 0.26458349,0.26458349 0 0 0 -0.00775,0.0413 0.26458349,0.26458349 0 0 0 -0.00206,0.0274 v 0.26355 h 0.7441406 a 0.26460995,0.26460995 0 0 1 0.2640666,0.26562 v 0.74207 h 0.2651001 a 0.26460995,0.26460995 0 0 0 0.2640666,-0.26355 v -1.00769 a 0.26460995,0.26460995 0 0 0 -0.2640666,-0.26562 z"
         inkscape:connector-curvature="0" />
      <path
         d="m 7.9795489,291.38479 a 0.26458349,0.26458349 0 0 0 -0.1250571,0.031 0.26458349,0.26458349 0 0 0 -0.1307411,0.16588 0.26458349,0.26458349 0 0 0 -0.00775,0.0413 0.26458349,0.26458349 0 0 0 -0.00206,0.0274 v 0.26355 h 0.7441405 a 0.26460995,0.26460995 0 0 1 0.2640666,0.26562 v 0.74207 h 0.2651001 a 0.26460995,0.26460995 0 0 0 0.2640666,-0.26355 v -1.00769 a 0.26460995,0.26460995 0 0 0 -0.2640666,-0.26562 z"
         style="color:#000000;font-style:normal;font-variant:normal;font-weight:normal;font-stretch:normal;font-size:medium;line-height:normal;font-family:sans-serif;font-variant-ligatures:normal;font-variant-position:normal;font-variant-caps:normal;font-variant-numeric:normal;font-variant-alternates:normal;font-feature-settings:normal;text-indent:0;text-align:start;text-decoration:none;text-decoration-line:none;text-decoration-style:solid;text-decoration-color:#000000;letter-spacing:normal;word-spacing:normal;text-transform:none;writing-mode:lr-tb;direction:ltr;text-orientation:mixed;dominant-baseline:auto;baseline-shift:baseline;text-anchor:start;white-space:normal;shape-padding:0;clip-rule:nonzero;display:inline;overflow:visible;visibility:visible;opacity:1;isolation:auto;mix-blend-mode:normal;color-interpolation:sRGB;color-interpolation-filters:linearRGB;solid-color:#000000;solid-opacity:1;vector-effect:none;fill:#999999;fill-opacity:1;fill-rule:nonzero;stroke:none;stroke-width:0.42959642;stroke-linecap:round;stroke-linejoin:round;stroke-miterlimit:4;stroke-dasharray:none;stroke-dashoffset:0;stroke-opacity:1;color-rendering:auto;image-rendering:auto;shape-rendering:auto;text-rendering:auto;enable-background:accumulate"
         id="path2483"
         inkscape:connector-curvature="0" />
      <path
         id="path2485"
         style="color:#000000;font-style:normal;font-variant:normal;font-weight:normal;font-stretch:normal;font-size:medium;line-height:normal;font-family:sans-serif;font-variant-ligatures:normal;font-variant-position:normal;font-variant-caps:normal;font-variant-numeric:normal;font-variant-alternates:normal;font-feature-settings:normal;text-indent:0;text-align:start;text-decoration:none;text-decoration-line:none;text-decoration-style:solid;text-decoration-color:#000000;letter-spacing:normal;word-spacing:normal;text-transform:none;writing-mode:lr-tb;direction:ltr;text-orientation:mixed;dominant-baseline:auto;baseline-shift:baseline;text-anchor:start;white-space:normal;shape-padding:0;clip-rule:nonzero;display:inline;overflow:visible;visibility:visible;opacity:1;isolation:auto;mix-blend-mode:normal;color-interpolation:sRGB;color-interpolation-filters:linearRGB;solid-color:#000000;solid-opacity:1;vector-effect:none;fill:#999999;fill-opacity:1;fill-rule:nonzero;stroke:none;stroke-width:0.42959642;stroke-linecap:round;stroke-linejoin:round;stroke-miterlimit:4;stroke-dasharray:none;stroke-dashoffset:0;stroke-opacity:1;color-rendering:auto;image-rendering:auto;shape-rendering:auto;text-rendering:auto;enable-background:accumulate"
         d="m 7.9313594,293.838 a 0.26458349,0.26458349 0 0 0 -0.1250571,0.031 0.26458349,0.26458349 0 0 0 -0.1307412,0.16588 0.26458349,0.26458349 0 0 0 -0.00775,0.0413 0.26458349,0.26458349 0 0 0 -0.00206,0.0274 v 0.26355 h 0.7441406 a 0.26460995,0.26460995 0 0 1 0.2640666,0.26562 v 0.74207 h 0.2651001 a 0.26460995,0.26460995 0 0 0 0.2640666,-0.26355 v -1.00769 a 0.26460995,0.26460995 0 0 0 -0.2640666,-0.26562 z"
         inkscape:connector-curvature="0" />
      <path
         d="m 5.8864399,293.86338 a 0.26458349,0.26458349 0 0 0 -0.1250571,0.031 0.26458349,0.26458349 0 0 0 -0.1307412,0.16588 0.26458349,0.26458349 0 0 0 -0.00775,0.0413 0.26458349,0.26458349 0 0 0 -0.00206,0.0274 v 0.26355 h 0.7441406 a 0.26460995,0.26460995 0 0 1 0.2640666,0.26562 v 0.74207 h 0.2651001 a 0.26460995,0.26460995 0 0 0 0.2640666,-0.26355 v -1.00769 a 0.26460995,0.26460995 0 0 0 -0.2640666,-0.26562 z"
         style="color:#000000;font-style:normal;font-variant:normal;font-weight:normal;font-stretch:normal;font-size:medium;line-height:normal;font-family:sans-serif;font-variant-ligatures:normal;font-variant-position:normal;font-variant-caps:normal;font-variant-numeric:normal;font-variant-alternates:normal;font-feature-settings:normal;text-indent:0;text-align:start;text-decoration:none;text-decoration-line:none;text-decoration-style:solid;text-decoration-color:#000000;letter-spacing:normal;word-spacing:normal;text-transform:none;writing-mode:lr-tb;direction:ltr;text-orientation:mixed;dominant-baseline:auto;baseline-shift:baseline;text-anchor:start;white-space:normal;shape-padding:0;clip-rule:nonzero;display:inline;overflow:visible;visibility:visible;opacity:1;isolation:auto;mix-blend-mode:normal;color-interpolation:sRGB;color-interpolation-filters:linearRGB;solid-color:#000000;solid-opacity:1;vector-effect:none;fill:#999999;fill-opacity:1;fill-rule:nonzero;stroke:none;stroke-width:0.42959642;stroke-linecap:round;stroke-linejoin:round;stroke-miterlimit:4;stroke-dasharray:none;stroke-dashoffset:0;stroke-opacity:1;color-rendering:auto;image-rendering:auto;shape-rendering:auto;text-rendering:auto;enable-background:accumulate"
         id="path2487"
         inkscape:connector-curvature="0" />
      <path
         id="path2489"
         style="color:#000000;font-style:normal;font-variant:normal;font-weight:normal;font-stretch:normal;font-size:medium;line-height:normal;font-family:sans-serif;font-variant-ligatures:normal;font-variant-position:normal;font-variant-caps:normal;font-variant-numeric:normal;font-variant-alternates:normal;font-feature-settings:normal;text-indent:0;text-align:start;text-decoration:none;text-decoration-line:none;text-decoration-style:solid;text-decoration-color:#000000;letter-spacing:normal;word-spacing:normal;text-transform:none;writing-mode:lr-tb;direction:ltr;text-orientation:mixed;dominant-baseline:auto;baseline-shift:baseline;text-anchor:start;white-space:normal;shape-padding:0;clip-rule:nonzero;display:inline;overflow:visible;visibility:visible;opacity:1;isolation:auto;mix-blend-mode:normal;color-interpolation:sRGB;color-interpolation-filters:linearRGB;solid-color:#000000;solid-opacity:1;vector-effect:none;fill:#999999;fill-opacity:1;fill-rule:nonzero;stroke:none;stroke-width:0.42959642;stroke-linecap:round;stroke-linejoin:round;stroke-miterlimit:4;stroke-dasharray:none;stroke-dashoffset:0;stroke-opacity:1;color-rendering:auto;image-rendering:auto;shape-rendering:auto;text-rendering:auto;enable-background:accumulate"
         d="m 3.6774588,293.83793 a 0.26458349,0.26458349 0 0 0 -0.1250571,0.031 0.26458349,0.26458349 0 0 0 -0.1307412,0.16588 0.26458349,0.26458349 0 0 0 -0.00775,0.0413 0.26458349,0.26458349 0 0 0 -0.00206,0.0274 v 0.26355 h 0.7441406 a 0.26460995,0.26460995 0 0 1 0.2640666,0.26562 v 0.74207 h 0.2651001 a 0.26460995,0.26460995 0 0 0 0.2640666,-0.26355 v -1.00769 a 0.26460995,0.26460995 0 0 0 -0.2640666,-0.26562 z"
         inkscape:connector-curvature="0" />
    </g>
  </g>
</svg>
